<svg xmlns="http://www.w3.org/2000/svg" xmlns:xlink="http://www.w3.org/1999/xlink" viewBox="0 0 124 72"><defs><clipPath id="a" transform="translate(-2 -2)"><rect x="2" y="2" width="124" height="72" fill="none"/></clipPath></defs><g clip-path="url(#a)"><rect width="124" height="72" fill="#fff"/><polygon points="83.027 26.032 124 3.2 124 0 121.175 0 74.458 26.032 83.027 26.032" fill="#bd0034"/><polygon points="81.094 47.412 124 71.314 124 66.537 89.666 47.412 81.094 47.412" fill="#bd0034"/><polygon points="0 5.481 36.704 26.032 45.28 26.032 0 0.7 0 5.481" fill="#bd0034"/><polygon points="43.336 47.412 0 71.583 0 72 7.829 72 51.915 47.412 43.336 47.412" fill="#bd0034"/><polygon points="115.514 0 72.099 0 72.099 24.203 115.514 0" fill="#1a237b"/><polygon points="52.93 0 9.688 0 52.93 24.203 52.93 0" fill="#1a237b"/><polygon points="124 26.032 124 9.514 94.548 26.032 124 26.032" fill="#1a237b"/><polygon points="124 63.754 124 47.412 94.548 47.412 124 63.754" fill="#1a237b"/><polygon points="12.141 72 52.93 72 52.93 49.247 12.141 72" fill="#1a237b"/><polygon points="72.099 72 113.017 72 72.099 49.247 72.099 72" fill="#1a237b"/><polygon points="0 47.412 0 64.49 30.477 47.412 0 47.412" fill="#1a237b"/><polygon points="0 26.032 30.477 26.032 0 8.929 0 26.032" fill="#1a237b"/><polygon points="56.765 0 56.765 30.309 0 30.309 0 43.145 56.765 43.145 56.765 72 68.264 72 68.264 43.145 124 43.145 124 30.309 68.264 30.309 68.264 0 56.765 0" fill="#bd0034"/></g></svg>