<svg xmlns="http://www.w3.org/2000/svg" viewBox="0 0 512 82.85226"><path d="M86.85226,46.72085A41.3834,41.3834,0,1,1,54.55807,6.30518V46.72085a9.13181,9.13181,0,1,1-2.51775-6.29649V28.0441A19.81169,19.81169,0,1,0,65.2351,46.72085V10.32953A41.41605,41.41605,0,0,1,86.85226,46.72085Z" transform="translate(-4 -5.29472)" fill="#c41616"/><path d="M110.74088,27.39585H96.88439v.55242h.71749a3.34919,3.34919,0,0,1,2.45661,1.02165,3.55179,3.55179,0,0,1,1.07623,2.456v32.2395a23.3925,23.3925,0,0,1-.57971,5.16216,13.13375,13.13375,0,0,1-1.98739,4.60973A9.07846,9.07846,0,0,1,94.676,76.58341v.49718a16.50314,16.50314,0,0,0,6.01741-.44194,14.55034,14.55034,0,0,0,5.244-2.56644,12.93291,12.93291,0,0,0,3.644-4.38876,12.6863,12.6863,0,0,0,1.32514-5.85235V31.42587a3.54826,3.54826,0,0,1,1.07556-2.456,3.35072,3.35072,0,0,1,2.45728-1.02165h.71749v-.55242h-4.416Z" transform="translate(-4 -5.29472)" fill="#c41616"/><path d="M147.838,59.05631a11.06642,11.06642,0,0,1-3.80905,3.25729,10.60808,10.60808,0,0,1-4.91257,1.13147h-7.0111V48.26344h6.67965a5.30017,5.30017,0,0,1,3.80905,1.5734,5.18376,5.18376,0,0,1,1.49088,3.78177v.386h.55175V39.98243h-.55175v.33145a5.04063,5.04063,0,0,1-1.46292,3.80972,5.34211,5.34211,0,0,1-3.837,1.60069h-6.67965V29.99091H141.426a6.05715,6.05715,0,0,1,3.79027,1.71117,6.32606,6.32606,0,0,1,1.68389,4.637v.55243h.55176V26.40216a8.28272,8.28272,0,0,1-1.65593.44193q-1.1601.22164-2.51186.3867a21.14676,21.14676,0,0,1-2.5671.16506H118.083v.55242h.71748a3.34923,3.34923,0,0,1,2.45662,1.02165,3.55531,3.55531,0,0,1,1.07689,2.456V62.00944a3.55715,3.55715,0,0,1-1.07689,2.45728,3.34857,3.34857,0,0,1-2.45662,1.021H118.083v.55176H148.5561l2.2636-12.03482h-.49718A15.99093,15.99093,0,0,1,147.838,59.05631Z" transform="translate(-4 -5.29472)" fill="#c41616"/><path d="M194.04426,27.39585H180.18777v.55242h1.04894a3.25946,3.25946,0,0,1,2.40137.96641,3.46013,3.46013,0,0,1,1.02165,2.40071V51.5761L157.49852,26.56788h-.55176a39.97008,39.97008,0,0,1,.66225,6.90062V62.11992a3.393,3.393,0,0,1-3.36712,3.36778H153.193v.55176h18.43827V65.4877h-1.04894a3.393,3.393,0,0,1-3.36778-3.36778h-.00741l-.03835-20.31659,27.207,25.00886h.49651q-.27554-1.71118-.46922-3.31188a31.72749,31.72749,0,0,1-.193-3.75447V31.31539a3.40434,3.40434,0,0,1,1.04894-2.40071,3.28546,3.28546,0,0,1,2.37408-.96641h.9937v-.55242h-4.58244Z" transform="translate(-4 -5.29472)" fill="#c41616"/><path d="M235.66861,29.05245a30.413,30.413,0,0,0-23.82138,0,17.84907,17.84907,0,0,0-7.70063,6.92791A20.45213,20.45213,0,0,0,201.44172,46.718,20.41359,20.41359,0,0,0,204.1466,57.4829a17.90249,17.90249,0,0,0,7.70063,6.90062,30.42052,30.42052,0,0,0,23.82138,0A17.81925,17.81925,0,0,0,243.3972,57.455a20.45434,20.45434,0,0,0,2.70488-10.737,20.41987,20.41987,0,0,0-2.70488-10.76492A17.87535,17.87535,0,0,0,235.66861,29.05245ZM234.04,56.10251a13.37285,13.37285,0,0,1-4.03,6.04537,9.63982,9.63982,0,0,1-6.26567,2.12516,9.52909,9.52909,0,0,1-6.23838-2.12516,13.47711,13.47711,0,0,1-4.00207-6.04537,27.84063,27.84063,0,0,1-1.40768-9.38452,27.84469,27.84469,0,0,1,1.40768-9.38519,13.4748,13.4748,0,0,1,4.00207-6.0447,9.52954,9.52954,0,0,1,6.23838-2.12583A9.64028,9.64028,0,0,1,230.01,31.2881a13.37057,13.37057,0,0,1,4.03,6.0447,27.84469,27.84469,0,0,1,1.40768,9.38519A27.84063,27.84063,0,0,1,234.04,56.10251Z" transform="translate(-4 -5.29472)" fill="#c41616"/><path d="M285.43621,28.749a5.06418,5.06418,0,0,1,2.5671-.80068h.49718v-.55242H276.41043v.55242h.49651a2.70987,2.70987,0,0,1,1.98739.91117q.88255.9105.11049,2.56643h.04555L270.04778,52.3121,261.4303,31.42587h.01947a2.493,2.493,0,0,1,.24825-2.56643,2.4059,2.4059,0,0,1,1.84962-.91117h.49651v-.55242H244.77793v.55242h.44127a5.14559,5.14559,0,0,1,2.62234.80068,5.561,5.561,0,0,1,1.99692,2.205l17.18678,36.3002h.49718a7.59275,7.59275,0,0,1,.44127-1.76642q.38637-1.10418.88321-2.31884.49719-1.214.93845-2.23565.44128-1.02131.66291-1.40768L283.341,31.14123A5.68357,5.68357,0,0,1,285.43621,28.749Z" transform="translate(-4 -5.29472)" fill="#c41616"/><path d="M318.66991,64.687a5.44825,5.44825,0,0,1-1.91408-2.058L299.65194,26.18119h-.49652a7.6457,7.6457,0,0,1-.44194,1.76708q-.38635,1.10418-.9105,2.31885-.52512,1.214-.93911,2.23564a7.64083,7.64083,0,0,1-.68953,1.40768L283.15,62.91364a5.25821,5.25821,0,0,1-1.74327,1.77338,5.14549,5.14549,0,0,1-2.62234.80068h-.49652v.55176H290.3779V65.4877h-.49718a2.6179,2.6179,0,0,1-1.35244-.414,2.20565,2.20565,0,0,1-.96641-1.18738,2.51388,2.51388,0,0,1,.221-1.8769h-.06552l2.53907-5.96217h12.4242l2.42369,5.96217h-.04193a2.22577,2.22577,0,0,1-.13844,2.5671,2.62031,2.62031,0,0,1-1.95944.91116h-.49718v.55176h19.2669V65.4877h-.44194A5.14546,5.14546,0,0,1,318.66991,64.687Zm-27.33218-11.1789,5.27518-12.387,5.03548,12.387Z" transform="translate(-4 -5.29472)" fill="#c41616"/><path d="M345.52679,45.11663,335.09266,39.265a16.72437,16.72437,0,0,1-3.20205-2.15246,3.34281,3.34281,0,0,1-1.15876-2.98174,4.5385,4.5385,0,0,1,2.06992-3.56013,8.86282,8.86282,0,0,1,5.272-1.40835,9.29009,9.29009,0,0,1,6.04537,1.82233,5.83584,5.83584,0,0,1,2.23564,4.7475h.55243l.82765-7.3978h.00031l.16507-1.15942h-4.21208q-.63848-.06882-1.33611-.13777-1.95977-.19269-3.809-.3035-1.84895-.10981-2.95313-.11048a15.15286,15.15286,0,0,0-6.23838,1.18737,10.05068,10.05068,0,0,0-4.19575,3.36711,10.48118,10.48118,0,0,0-1.82166,5.21674,10.622,10.622,0,0,0,1.13213,6.32157,10.915,10.915,0,0,0,4.88528,4.55382l9.33,5.29993a12.34036,12.34036,0,0,1,3.91953,2.73216,4.73376,4.73376,0,0,1,1.21467,3.17477,5.19989,5.19989,0,0,1-1.9601,4.03,8.73894,8.73894,0,0,1-5.76916,1.76642,12.20936,12.20936,0,0,1-6.18313-1.49021,9.73663,9.73663,0,0,1-3.89159-3.97478,10.09493,10.09493,0,0,1-1.13146-5.35517H324.383a11.25548,11.25548,0,0,0-1.32515,3.009,15.34389,15.34389,0,0,0-.635,3.72586,7.72775,7.72775,0,0,0,.41464,3.14681,9.983,9.983,0,0,0,2.8706,1.79437,19.06078,19.06078,0,0,0,4.25033,1.24195,29.42622,29.42622,0,0,0,5.24468.44128q7.23209,0,11.45511-3.06362a10.86125,10.86125,0,0,0,4.49925-8.75024,10.07864,10.07864,0,0,0-1.29719-6.01674A10.20312,10.20312,0,0,0,345.52679,45.11663Z" transform="translate(-4 -5.29472)" fill="#fff"/><path d="M386.46112,27.17555a21.14676,21.14676,0,0,1-2.5671.16506H360.9838a21.40536,21.40536,0,0,1-2.53915-.16506q-1.38072-.16574-2.51186-.3867a9.97851,9.97851,0,0,1-1.68389-.44194V36.83628l.55242-.05524v-.49718a6.32568,6.32568,0,0,1,1.68323-4.637,6.42533,6.42533,0,0,1,4.665-1.76642h6.40411v32.129a3.55715,3.55715,0,0,1-1.07689,2.45728,3.34857,3.34857,0,0,1-2.45662,1.021h-.71748v.55176h18.2732V65.4877h-.71815a3.34857,3.34857,0,0,1-2.45662-1.021,3.55366,3.55366,0,0,1-1.07622-2.45728v-32.129h6.40344a6.42644,6.42644,0,0,1,4.665,1.76642,6.326,6.326,0,0,1,1.68389,4.637V36.781l.55176.05524V26.34691a8.28183,8.28183,0,0,1-1.65594.44194Q387.81289,27.01049,386.46112,27.17555Z" transform="translate(-4 -5.29472)" fill="#fff"/><path d="M427.50626,29.05245a30.413,30.413,0,0,0-23.82138,0,17.84907,17.84907,0,0,0-7.70063,6.92791A20.45213,20.45213,0,0,0,393.27937,46.718a20.41359,20.41359,0,0,0,2.70488,10.76491,17.90249,17.90249,0,0,0,7.70063,6.90062,30.42052,30.42052,0,0,0,23.82138,0,17.81925,17.81925,0,0,0,7.72859-6.92857,20.45434,20.45434,0,0,0,2.70488-10.737,20.41987,20.41987,0,0,0-2.70488-10.76492A17.87535,17.87535,0,0,0,427.50626,29.05245Zm-1.62864,27.05006a13.37285,13.37285,0,0,1-4.03,6.04537,9.63982,9.63982,0,0,1-6.26567,2.12516,9.52909,9.52909,0,0,1-6.23838-2.12516,13.47711,13.47711,0,0,1-4.00207-6.04537A27.84063,27.84063,0,0,1,403.9338,46.718a27.84469,27.84469,0,0,1,1.40768-9.38519,13.4748,13.4748,0,0,1,4.00207-6.0447,9.52954,9.52954,0,0,1,6.23838-2.12583,9.64028,9.64028,0,0,1,6.26567,2.12583,13.37057,13.37057,0,0,1,4.03,6.0447A27.84469,27.84469,0,0,1,427.2853,46.718,27.84063,27.84063,0,0,1,425.87762,56.10251Z" transform="translate(-4 -5.29472)" fill="#fff"/><path d="M515.50282,54.00464a15.99093,15.99093,0,0,1-2.48457,5.05167,11.06642,11.06642,0,0,1-3.809,3.25729,10.60808,10.60808,0,0,1-4.91257,1.13147h-7.0111V48.26344h6.67965a5.30017,5.30017,0,0,1,3.80905,1.5734,5.18376,5.18376,0,0,1,1.49088,3.78177v.386h.55175V39.98243h-.55175v.33145a5.04063,5.04063,0,0,1-1.46292,3.80972,5.34212,5.34212,0,0,1-3.837,1.60069h-6.67965V29.99091h9.32079a6.05713,6.05713,0,0,1,3.79025,1.71117,6.32606,6.32606,0,0,1,1.68389,4.637v.55243h.55176V26.40216a8.28267,8.28267,0,0,1-1.65594.44193q-1.16008.22164-2.51185.3867a21.14676,21.14676,0,0,1-2.5671.16506h-22.634v.55242h.71748a3.34923,3.34923,0,0,1,2.45662,1.02165,3.55535,3.55535,0,0,1,1.07689,2.456V62.00944a3.55719,3.55719,0,0,1-1.07689,2.45728,3.33392,3.33392,0,0,1-2.20341,1.01183,8.03027,8.03027,0,0,1-2.21306-.40483,5.67678,5.67678,0,0,1-1.98739-1.26991,23.98718,23.98718,0,0,1-2.235-2.51186q-.77273-.99336-1.60136-2.2636-.82863-1.2699-1.62865-2.4839-.80067-1.214-1.29719-2.04263a8.69089,8.69089,0,0,1-.55176-.9937,17.3494,17.3494,0,0,0-2.5671-3.06428,8.69556,8.69556,0,0,0-3.67128-2.12516,10.037,10.037,0,0,0,5.272-2.09787,9.45445,9.45445,0,0,0,2.81535-3.91954,12.58158,12.58158,0,0,0,.85592-4.47129,9.82445,9.82445,0,0,0-1.18671-5.051,8.9063,8.9063,0,0,0-3.202-3.202,14.33149,14.33149,0,0,0-4.49925-1.68389,25.26093,25.26093,0,0,0-4.96847-.49718H441.30809v.55242h.71748a3.34923,3.34923,0,0,1,2.45662,1.02165,3.55178,3.55178,0,0,1,1.07622,2.456V62.00944a3.55362,3.55362,0,0,1-1.07622,2.45728,3.34857,3.34857,0,0,1-2.45662,1.021h-.71748v.55176h18.27253V65.4877h-.66224a3.44049,3.44049,0,0,1-2.48457-1.021,3.306,3.306,0,0,1-1.04894-2.45728V30.04615h3.31254a6.32783,6.32783,0,0,1,4.38876,1.76642q1.794,1.71117,2.01535,5.7412a8.65959,8.65959,0,0,1,0,1.38039,8.914,8.914,0,0,1-.16573,1.10351,9.84536,9.84536,0,0,1-1.32515,3.80972,5.83733,5.83733,0,0,1-2.2636,2.09787,6.32514,6.32514,0,0,1-2.8706.66224H457.2072v.55176a3.97309,3.97309,0,0,1,1.79371,1.02165,6.743,6.743,0,0,1,1.51816,2.67692q.22065.608.49652,1.46358.27555.8556.60766,1.82167.33146.96641.77273,1.98739.44127,1.0213.88321,2.04263a11.652,11.652,0,0,0,.99369,1.849,11.23214,11.23214,0,0,0,3.58875,3.80972,13.11712,13.11712,0,0,0,4.66431,1.73846,32.8362,32.8362,0,0,0,5.76915.46923H513.7364L516,54.00464Z" transform="translate(-4 -5.29472)" fill="#fff"/></svg>